<svg width="337" height="337" viewBox="0 0 337 337" fill="none" xmlns="http://www.w3.org/2000/svg">
<path d="M179.368 231.681L176.555 231.476L173.972 230.963C169.189 229.962 165.2 228.372 161.568 225.986L159.445 224.601L157.323 222.6L155.2 220.599L153.589 218.444L151.978 216.289L150.801 214.057L149.65 211.825L148.858 209.542C147.221 204.898 146.633 200.922 146.377 192.687L146.198 187.685L153.845 181.015C162.233 173.678 164.688 171.574 165.814 170.702L166.555 170.137H174.432H182.284L182.693 170.291L183.102 170.445V178.885V187.326L176.401 187.377C172.693 187.403 169.266 187.403 168.78 187.377C168.294 187.326 167.501 187.377 167.067 187.454L166.223 187.608V192.174V196.715L166.632 199.152L167.041 201.563L167.604 203.103L168.166 204.642L169.138 206.13L170.11 207.592L171.107 208.439C171.645 208.926 172.642 209.593 173.307 209.978L174.534 210.645L176.453 211.209L178.371 211.774L187.833 211.928L197.27 212.082L199.47 215.186C208.37 227.91 210.85 231.502 210.927 231.707L211.029 231.963L196.605 231.938L182.207 231.886L179.368 231.681Z" fill="#1E1E1E"/>
<path d="M215.915 228.319C214.534 226.293 210.442 220.495 206.887 215.415C203.307 210.336 198.575 203.589 196.325 200.408L192.284 194.636L192.719 194.379C192.949 194.251 194.176 193.43 195.481 192.583L197.808 191.044L200.238 188.607L202.667 186.17L204.099 183.989C205.89 181.321 207.117 178.859 208.038 176.191L208.728 174.164L209.214 171.624L209.7 169.084V165.955V162.825L209.317 160.696C209.112 159.515 208.703 157.668 208.422 156.591L207.859 154.616L206.657 152.05L205.429 149.485L204.202 147.689C203.537 146.714 202.386 145.201 201.67 144.38L200.366 142.84L198.192 141.045L196.018 139.223L193.972 138.018C190.161 135.786 185.916 134.323 181.491 133.733L179.497 133.451H154.05H128.629V182.194V230.936H128.143C127.887 230.936 126.762 230.654 125.662 230.295L123.667 229.628L121.238 228.37L118.782 227.088L117.069 225.779C116.123 225.087 114.639 223.804 113.795 222.958L112.261 221.444L110.701 219.34L109.141 217.237L108.143 215.236C107.606 214.133 106.865 212.491 106.532 211.593L105.918 209.951L105.381 207.36L104.844 204.795V154.898V104.975H154.28H203.716L206.145 105.386L208.549 105.796L210.826 106.54C213.536 107.438 216.094 108.695 218.524 110.311L220.314 111.517L222.181 113.313L224.073 115.083L225.71 117.289L227.347 119.47L228.6 122.035C230.058 125.011 230.697 126.858 231.362 129.86L231.822 132.04V181.937V231.834L225.147 231.911L218.472 231.962L215.915 228.319Z" fill="#1E1E1E"/>
<path d="M155.865 169.88L146.403 169.752V157.181V144.611H156.249H166.095L166.172 157.207L166.223 169.829L165.788 169.906C165.533 169.957 161.083 169.957 155.865 169.88Z" fill="#1E1E1E"/>
<rect x="6.27834" y="6.41408" width="324.11" height="324.11" rx="162.055" stroke="#1E1E1E" stroke-width="11.4433"/>
</svg>
